# xmcd
#
# Track frame offsets:
#	150
#	18043
#	38474
#	58995
#	78011
#	94472
#	111553
#	133984
#	151120
#	169571
#	189062
#	206573
#	225709
#	243575
#	259761
#
# Disc length: 3823 seconds
#
# Revision: 0
# Processed by: cddbd v1.5.2PL0 Copyright (c) Steve Scherf et al.
# Submitted via: EasyCDDAExtractor 10.0.2.1
#
DISCID=bd0eed0f
DTITLE=Various Artist - 2006 Steppers Hall Of Fame Vol 8
DYEAR=1900
DGENRE=Blues
TTITLE0=Ty Causey (Mansfield Revenge) - Life On Track
TTITLE1=Janet Jackson - Enjoy
TTITLE2=Robin Thicke w/Faith Evans - Got 2 Be Down
TTITLE3=Robin Thicke - Lost Without You
TTITLE4=Ruben Studdard - Rather Just Not Know
TTITLE5=Ruben Studdard - Change Me
TTITLE6=Boney James w/Dwelle - In The Rain
TTITLE7=John Legend - Each Day Gets Better
TTITLE8=Letoya London - She Don't 
TTITLE9=Snoop Dogg w/R. Kelly - This Is The S__t
TTITLE10=Monica - A Dozen Roses
TTITLE11=Freddie Jackson - Hold On 2 Me
TTITLE12=David Holister - Help Me
TTITLE13=Natalie Cole - Daydreaming
TTITLE14=Tech and Effex - Perfect Match
EXTD=
EXTT0=
EXTT1=
EXTT2=
EXTT3=
EXTT4=
EXTT5=
EXTT6=
EXTT7=
EXTT8=
EXTT9=
EXTT10=
EXTT11=
EXTT12=
EXTT13=
EXTT14=
PLAYORDER=
